<svg xmlns="http://www.w3.org/2000/svg" viewBox="39.96 39.96 730.08 730.08"><style>.u{fill:#051d40}.l{fill:#1976d2}@media (prefers-color-scheme:dark){.l,.u{fill:#fff}}</style><g id="logo-upper" class="u"><path d="M706.457 267.188c0 8.054-6.555 14.609-14.61 14.609-8.058 0-14.613-6.555-14.613-14.61s6.555-14.609 14.614-14.609c8.054 0 14.609 6.555 14.609 14.61M572.988 149.289c-11.351 0-20.59-9.238-20.59-20.59s9.239-20.586 20.59-20.586c11.356 0 20.59 9.235 20.59 20.586 0 11.352-9.234 20.59-20.59 20.59M387.922 85.551c0 8.054-6.555 14.605-14.61 14.605s-14.605-6.55-14.605-14.605 6.55-14.61 14.606-14.61c8.054 0 14.609 6.555 14.609 14.61M350.75 206.855c0 11.352-9.234 20.586-20.586 20.586-11.355 0-20.586-9.234-20.586-20.586s9.23-20.585 20.586-20.585c11.352 0 20.586 9.234 20.586 20.585m372.629 60.333c0-17.41-14.117-31.532-31.531-31.532-16.856 0-30.618 13.227-31.489 29.86h-54.054c-3.028-6.883-9.22-12.047-16.742-13.653l-6.446-81.218a43 43 0 0 0 14.586-6.579l57.742 59.864 9.739-9.399-57.735-59.86a42.97 42.97 0 0 0 8.696-25.972c0-23.828-19.317-43.148-43.157-43.148-15.468 0-29.031 8.144-36.644 20.379-37.004-14.524-76.578-22.06-116.957-22.06-4.875 0-9.739.11-14.578.32-.707-16.78-14.536-30.171-31.497-30.171-17.414 0-31.53 14.117-31.53 31.53 0 2.595.32 5.11.913 7.52-48.886 11.953-94.261 35.34-132.87 68.82a34.7 34.7 0 0 1 6.195 12.79c37.34-33.118 82.78-57.278 132.937-69.11a31.4 31.4 0 0 0 7.66 6.72l-18.55 52.151a43.6 43.6 0 0 0-7.903-.738c-19.148 0-35.371 12.477-41.012 29.734l-83.593-13.37c-1.524-11.618-11.434-20.59-23.465-20.59-13.082 0-23.688 10.605-23.688 23.687s10.606 23.691 23.688 23.691c9.402 0 17.5-5.488 21.328-13.425l83.59 13.379v.046c0 23.833 19.32 43.153 43.152 43.153s43.149-19.32 43.149-43.153c0-16.347-9.09-30.562-22.489-37.886l18.547-52.14a31.4 31.4 0 0 0 22.71-5.945l66.47 57.925 8.894-10.207-66.465-57.922a31 31 0 0 0 1.352-2.782 309 309 0 0 1 17.055-.488c38.82 0 76.605 7.438 111.652 21.2a43.2 43.2 0 0 0-1.2 10.09c0 22.698 17.528 41.284 39.778 43.007l5.996 75.535c-17.308-17.289-37.129-31.39-58.668-41.96.121-.973.203-1.962.203-2.97 0-13.082-10.605-23.69-23.687-23.69-8.324 0-15.633 4.3-19.856 10.792-17.492-4.383-35.675-6.652-54.218-6.652a221.5 221.5 0 0 0-38.88 3.425 54 54 0 0 1 3.555 13.133 208 208 0 0 1 35.325-3.02c17.23 0 34.12 2.102 50.39 6.13.063 13.027 10.645 23.574 23.684 23.574 7.215 0 13.66-3.238 18.008-8.32 20.707 10.23 39.715 23.945 56.215 40.785-4.18 4.277-6.766 10.113-6.766 16.562 0 13.082 10.605 23.688 23.695 23.688 11.707 0 21.403-8.5 23.324-19.66h54.696c4.691 11.527 16 19.66 29.215 19.66 17.414 0 31.53-14.117 31.53-31.531"/><path d="M122.758 322.41c0 6.84-5.567 12.41-12.406 12.41-6.844 0-12.41-5.57-12.41-12.41 0-6.844 5.566-12.406 12.41-12.406 6.84 0 12.406 5.562 12.406 12.406m78.797 73.692c11.351 0 20.59 9.238 20.59 20.586 0 11.351-9.239 20.59-20.59 20.59-11.352 0-20.586-9.239-20.586-20.59 0-11.348 9.234-20.586 20.586-20.586m87.43-153.711a54.6 54.6 0 0 1-7.54-11.305 223.6 223.6 0 0 0-39.101 40.238 23.55 23.55 0 0 0-13.367-4.137c-12.84 0-23.27 10.223-23.653 22.973l-74.793 19.88a24 24 0 0 0-2.183-3.009c10.918-32.578 27.144-62.738 47.672-89.433a34.7 34.7 0 0 1-13.227-5.293 317.1 317.1 0 0 0-46.336 87.234c-1.953-.516-3.992-.82-6.105-.82-13.086 0-23.692 10.605-23.692 23.691 0 10.73 7.137 19.781 16.922 22.695V459.84h13.54V345.105c9.562-2.843 16.57-11.57 16.882-21.98l74.797-19.879a23.7 23.7 0 0 0 9.273 8.649 219.8 219.8 0 0 0-18.066 61.68c-23.113.816-41.602 19.8-41.602 43.113 0 23.832 19.317 43.152 43.149 43.152s43.152-19.32 43.152-43.152c0-19.704-13.215-36.313-31.262-41.481a206.3 206.3 0 0 1 18.442-60.832c11.707-1.441 20.781-11.398 20.781-23.5 0-3.02-.586-5.898-1.617-8.555a209.8 209.8 0 0 1 37.933-39.93"/></g><g id="logo-lower" class="l"><path d="M599.219 535.758c0 8.054-6.555 14.61-14.606 14.61-8.058 0-14.605-6.556-14.605-14.61 0-8.055 6.547-14.61 14.605-14.61 8.051 0 14.606 6.555 14.606 14.61m124.164 0c0-13.082-10.61-23.688-23.692-23.688-10.73 0-19.78 7.137-22.695 16.922H615.41c-3.097-14.164-15.707-24.765-30.797-24.765-17.414 0-31.535 14.117-31.535 31.53 0 8.005 2.992 15.306 7.902 20.868-17.699 16.52-37.949 29.668-59.878 39.027-2.696-10.12-11.899-17.586-22.868-17.586-13.086 0-23.691 10.61-23.691 23.688 0 13.086 10.605 23.691 23.691 23.691 9.942 0 18.43-6.125 21.95-14.8 26.582-10.387 50.992-25.899 71.945-45.93a31 31 0 0 0 5.715 1.836v64.164a31.55 31.55 0 0 0-16.793 9.851l-46.715-26.16-6.617 11.817 46.71 26.152a31.6 31.6 0 0 0-1.35 9.137c0 17.418 14.12 31.535 31.534 31.535s31.528-14.117 31.528-31.535c0-15.086-10.602-27.692-24.758-30.797V566.55c11.808-2.578 21.133-11.778 23.906-23.512h61.86a23.72 23.72 0 0 0 9.32 12.375c-17.66 31.121-40.45 58.512-66.992 81.3a42.7 42.7 0 0 1 6.207 12.727 320.6 320.6 0 0 0 74.035-89.992c13.07-.015 23.664-10.617 23.664-23.691"/><path d="M455.672 712.828c0 11.352-9.238 20.59-20.59 20.59s-20.586-9.238-20.586-20.59 9.234-20.59 20.586-20.59 20.59 9.239 20.59 20.59M385.727 606.29c0 6.844-5.567 12.41-12.41 12.41-6.844 0-12.41-5.566-12.41-12.41 0-6.84 5.566-12.41 12.41-12.41 6.843 0 12.41 5.57 12.41 12.41M126.87 518.832c-8.05 0-14.61-6.547-14.61-14.605 0-8.051 6.56-14.606 14.61-14.606 8.059 0 14.61 6.555 14.61 14.606 0 8.058-6.551 14.605-14.61 14.605m111.192 16.926c0-8.055 6.55-14.61 14.605-14.61s14.61 6.555 14.61 14.61-6.555 14.61-14.61 14.61-14.606-6.556-14.606-14.61M556.62 693.87a43.3 43.3 0 0 1-9.066-10.957 307.2 307.2 0 0 1-69.95 22.61c-3.468-20.348-21.18-35.848-42.523-35.848-5.473 0-10.7 1.031-15.516 2.89l-29.02-50.05c3.997-4.243 6.462-9.942 6.462-16.227 0-13.082-10.61-23.687-23.692-23.687-11.855 0-21.648 8.714-23.39 20.082l-107.074 14.77c-5.372-17.72-21.82-30.622-41.297-30.622a42.9 42.9 0 0 0-23.399 6.902 307.5 307.5 0 0 1-37.484-61.148 31.68 31.68 0 0 0 14.426-14.305l66.062 16.559c-.008.305-.023.605-.023.918 0 17.414 14.117 31.531 31.531 31.531s31.531-14.117 31.531-31.531-14.117-31.531-31.531-31.531a31.5 31.5 0 0 0-4.492.324l-12.863-34.238-12.672 4.761 12.863 34.238a31.7 31.7 0 0 0-11.063 12.391l-66.058-16.555c.008-.308.023-.613.023-.921 0-17.41-14.12-31.532-31.535-31.532s-31.53 14.122-31.53 31.533c0 17.418 14.117 31.53 31.531 31.53q.095.002.184-.007a318.5 318.5 0 0 0 40.886 67.188c-5.96 7.402-9.535 16.804-9.535 27.046 0 23.828 19.317 43.149 43.149 43.149 13.527 0 25.597-6.23 33.511-15.973l52.61 30.399a23.7 23.7 0 0 0-.664 5.488c0 13.086 10.61 23.687 23.691 23.687 13.086 0 23.692-10.601 23.692-23.687s-10.606-23.692-23.692-23.692c-6.297 0-12.008 2.477-16.25 6.485l-52.613-30.4a43 43 0 0 0 2.844-14.57l107.086-14.777c3.73 8.191 11.964 13.89 21.546 13.89 1.903 0 3.747-.25 5.52-.672l29.02 50.047c-9.016 7.34-15 18.246-15.817 30.57a306 306 0 0 1-47.5-8.034 34.9 34.9 0 0 1-6.156 12.496 320.5 320.5 0 0 0 54.918 9.25c4.797 18.597 21.687 32.34 41.781 32.34 21.617 0 39.523-15.903 42.66-36.641 27.301-5.031 53.801-13.567 78.88-25.469"/></g></svg>
