<svg xmlns="http://www.w3.org/2000/svg" viewBox="0 0 1600 1000" width="1600" height="1000"><defs><filter id="shadow" x="-10%" y="-10%" width="120%" height="130%"><feDropShadow dx="0" dy="18" stdDeviation="22" flood-color="#000" flood-opacity="0.14"/></filter></defs><rect x="0" y="0" width="1600" height="1000" rx="0" fill="#E6ECF5" /><g filter="url(#shadow)"><rect x="200" y="110" width="580" height="790" rx="6" fill="#0F1B33" /></g>
   <path d="M200 700 C360 620 460 720 620 640 S780 600 780 600 V900 H200Z" fill="#3B6FF5"/>
   <path d="M200 780 C340 740 500 800 780 720 V900 H200Z" fill="#1FB58F" fill-opacity="0.8"/>
   <circle cx="242" cy="164" r="12" fill="#3B6FF5" /><text x="264" y="170" font-family="Inter, 'Segoe UI', Arial, sans-serif" font-size="16" font-weight="700" fill="#FFFFFF" text-anchor="start" letter-spacing="0">Ledgerline</text>
   <text x="244" y="300" font-family="Georgia, 'Times New Roman', serif" font-size="50" font-weight="400" fill="#FFFFFF" text-anchor="start" letter-spacing="0">The founder’s</text>
   <text x="244" y="360" font-family="Georgia, 'Times New Roman', serif" font-size="50" font-weight="400" fill="#FFFFFF" text-anchor="start" letter-spacing="0">guide to</text>
   <text x="244" y="420" font-family="Georgia, 'Times New Roman', serif" font-size="50" font-weight="400" fill="#FFFFFF" text-anchor="start" letter-spacing="0">getting paid</text>
   <text x="244" y="480" font-family="Inter, 'Segoe UI', Arial, sans-serif" font-size="16" font-weight="400" fill="#AFC0E6" text-anchor="start" letter-spacing="0">Terms, reminders and the maths of waiting</text>
   <g filter="url(#shadow)"><rect x="820" y="110" width="580" height="790" rx="6" fill="#FFFFFF" /></g>
   <text x="864" y="180" font-family="Inter, 'Segoe UI', Arial, sans-serif" font-size="13" font-weight="600" fill="#3B6FF5" text-anchor="start" letter-spacing="2">CHAPTER 2</text>
   <text x="864" y="232" font-family="Georgia, 'Times New Roman', serif" font-size="38" font-weight="400" fill="#0F1B33" text-anchor="start" letter-spacing="0">Terms that work</text>
   <rect x="864" y="270" width="492" height="9" rx="4.5" fill="#D5DCE8" /><rect x="864" y="292" width="492" height="9" rx="4.5" fill="#D5DCE8" /><rect x="864" y="314" width="492" height="9" rx="4.5" fill="#D5DCE8" /><rect x="864" y="336" width="492" height="9" rx="4.5" fill="#D5DCE8" /><rect x="864" y="358" width="492" height="9" rx="4.5" fill="#D5DCE8" /><rect x="864" y="380" width="295.2" height="9" rx="4.5" fill="#D5DCE8" />
   <rect x="864" y="420" width="4" height="110" rx="0" fill="#1FB58F" /><text x="888" y="452" font-family="Georgia, 'Times New Roman', serif" font-size="24" font-weight="400" fill="#0F1B33" text-anchor="start" letter-spacing="0">“Set the terms before</text><text x="888" y="486" font-family="Georgia, 'Times New Roman', serif" font-size="24" font-weight="400" fill="#0F1B33" text-anchor="start" letter-spacing="0">you send the invoice.”</text>
   <rect x="864" y="566" width="492" height="9" rx="4.5" fill="#D5DCE8" /><rect x="864" y="588" width="492" height="9" rx="4.5" fill="#D5DCE8" /><rect x="864" y="610" width="492" height="9" rx="4.5" fill="#D5DCE8" /><rect x="864" y="632" width="295.2" height="9" rx="4.5" fill="#D5DCE8" />
   <rect x="864" y="690" width="150" height="150" rx="10" fill="#EEF2FA" /><circle cx="939" cy="750" r="26" fill="#3B6FF5" /><rect x="894" y="796" width="54" height="8" rx="4" fill="#D5DCE8" /><rect x="1032" y="690" width="150" height="150" rx="10" fill="#EEF2FA" /><circle cx="1107" cy="750" r="26" fill="#1FB58F" /><rect x="1062" y="796" width="54" height="8" rx="4" fill="#D5DCE8" /><rect x="1200" y="690" width="150" height="150" rx="10" fill="#EEF2FA" /><circle cx="1275" cy="750" r="26" fill="#3B6FF5" /><rect x="1230" y="796" width="54" height="8" rx="4" fill="#D5DCE8" />
   <rect x="1003" y="765" width="38" height="3" rx="0" fill="#D5DCE8" /><rect x="1171" y="765" width="38" height="3" rx="0" fill="#D5DCE8" /></svg>
